<svg width="310" height="36" viewBox="0 0 310 36" fill="none" xmlns="http://www.w3.org/2000/svg">
<path d="M95.0009 9.08C96.7769 9.08 98.3289 9.44 99.6569 10.16C101.001 10.864 102.033 11.856 102.753 13.136C103.473 14.416 103.833 15.88 103.833 17.528C103.833 19.16 103.465 20.616 102.729 21.896C102.009 23.176 100.977 24.184 99.6329 24.92C98.3049 25.64 96.7609 26 95.0009 26H88.3049V9.08H95.0009ZM94.6409 21.848C96.0169 21.848 97.0969 21.472 97.8809 20.72C98.6649 19.968 99.0569 18.904 99.0569 17.528C99.0569 16.136 98.6649 15.064 97.8809 14.312C97.0969 13.544 96.0169 13.16 94.6409 13.16H93.0089V21.848H94.6409ZM110.657 14.912C111.185 14.144 111.825 13.536 112.577 13.088C113.329 12.64 114.137 12.416 115.001 12.416V17.432H113.681C112.657 17.432 111.897 17.632 111.401 18.032C110.905 18.432 110.657 19.128 110.657 20.12V26H105.953V12.536H110.657V14.912ZM129.552 19.112C129.552 19.48 129.528 19.848 129.48 20.216H120.576C120.624 20.952 120.824 21.504 121.176 21.872C121.544 22.224 122.008 22.4 122.568 22.4C123.352 22.4 123.912 22.048 124.248 21.344H129.264C129.056 22.272 128.648 23.104 128.04 23.84C127.448 24.56 126.696 25.128 125.784 25.544C124.872 25.96 123.864 26.168 122.76 26.168C121.432 26.168 120.248 25.888 119.208 25.328C118.184 24.768 117.376 23.968 116.784 22.928C116.208 21.888 115.92 20.664 115.92 19.256C115.92 17.848 116.208 16.632 116.784 15.608C117.36 14.568 118.16 13.768 119.184 13.208C120.224 12.648 121.416 12.368 122.76 12.368C124.088 12.368 125.264 12.64 126.288 13.184C127.312 13.728 128.112 14.512 128.688 15.536C129.264 16.544 129.552 17.736 129.552 19.112ZM124.752 17.936C124.752 17.36 124.56 16.912 124.176 16.592C123.792 16.256 123.312 16.088 122.736 16.088C122.16 16.088 121.688 16.248 121.32 16.568C120.952 16.872 120.712 17.328 120.6 17.936H124.752ZM130.709 19.256C130.709 17.864 130.957 16.648 131.453 15.608C131.965 14.568 132.653 13.768 133.517 13.208C134.397 12.648 135.373 12.368 136.445 12.368C137.373 12.368 138.173 12.552 138.845 12.92C139.517 13.288 140.037 13.784 140.405 14.408V12.536H145.109V26H140.405V24.128C140.037 24.752 139.509 25.248 138.821 25.616C138.149 25.984 137.357 26.168 136.445 26.168C135.373 26.168 134.397 25.888 133.517 25.328C132.653 24.768 131.965 23.968 131.453 22.928C130.957 21.872 130.709 20.648 130.709 19.256ZM140.405 19.256C140.405 18.392 140.165 17.712 139.685 17.216C139.221 16.72 138.645 16.472 137.957 16.472C137.253 16.472 136.669 16.72 136.205 17.216C135.741 17.696 135.509 18.376 135.509 19.256C135.509 20.12 135.741 20.808 136.205 21.32C136.669 21.816 137.253 22.064 137.957 22.064C138.645 22.064 139.221 21.816 139.685 21.32C140.165 20.824 140.405 20.136 140.405 19.256ZM165.381 12.416C167.077 12.416 168.405 12.928 169.365 13.952C170.341 14.976 170.829 16.376 170.829 18.152V26H166.125V18.776C166.125 18.056 165.925 17.496 165.525 17.096C165.125 16.696 164.581 16.496 163.893 16.496C163.205 16.496 162.661 16.696 162.261 17.096C161.861 17.496 161.661 18.056 161.661 18.776V26H156.957V18.776C156.957 18.056 156.757 17.496 156.357 17.096C155.973 16.696 155.437 16.496 154.749 16.496C154.045 16.496 153.493 16.696 153.093 17.096C152.693 17.496 152.493 18.056 152.493 18.776V26H147.789V12.536H152.493V14.312C152.909 13.736 153.445 13.28 154.101 12.944C154.773 12.592 155.541 12.416 156.405 12.416C157.397 12.416 158.277 12.632 159.045 13.064C159.829 13.496 160.445 14.104 160.893 14.888C161.373 14.152 162.005 13.56 162.789 13.112C163.573 12.648 164.437 12.416 165.381 12.416Z" fill="#7165E3"/>
<path d="M184.207 14.648C183.935 14.2 183.559 13.856 183.079 13.616C182.615 13.376 182.063 13.256 181.423 13.256C180.239 13.256 179.303 13.64 178.615 14.408C177.943 15.176 177.607 16.208 177.607 17.504C177.607 18.96 177.967 20.072 178.687 20.84C179.423 21.592 180.487 21.968 181.879 21.968C183.527 21.968 184.703 21.224 185.407 19.736H180.679V16.352H189.463V20.912C189.095 21.808 188.551 22.648 187.831 23.432C187.127 24.216 186.231 24.864 185.143 25.376C184.055 25.872 182.815 26.12 181.423 26.12C179.727 26.12 178.223 25.76 176.911 25.04C175.615 24.304 174.607 23.288 173.887 21.992C173.183 20.68 172.831 19.184 172.831 17.504C172.831 15.84 173.183 14.36 173.887 13.064C174.607 11.752 175.615 10.736 176.911 10.016C178.207 9.28 179.703 8.912 181.399 8.912C183.527 8.912 185.287 9.424 186.679 10.448C188.071 11.472 188.935 12.872 189.271 14.648H184.207ZM205.347 12.536V26H200.619V24.08C200.219 24.688 199.667 25.184 198.963 25.568C198.259 25.936 197.451 26.12 196.539 26.12C194.971 26.12 193.731 25.608 192.819 24.584C191.923 23.544 191.475 22.136 191.475 20.36V12.536H196.155V19.76C196.155 20.528 196.355 21.136 196.755 21.584C197.171 22.016 197.715 22.232 198.387 22.232C199.075 22.232 199.619 22.016 200.019 21.584C200.419 21.136 200.619 20.528 200.619 19.76V12.536H205.347ZM207.256 19.256C207.256 17.864 207.504 16.648 208 15.608C208.512 14.568 209.2 13.768 210.064 13.208C210.944 12.648 211.92 12.368 212.992 12.368C213.92 12.368 214.72 12.552 215.392 12.92C216.064 13.288 216.584 13.784 216.952 14.408V12.536H221.656V26H216.952V24.128C216.584 24.752 216.056 25.248 215.368 25.616C214.696 25.984 213.904 26.168 212.992 26.168C211.92 26.168 210.944 25.888 210.064 25.328C209.2 24.768 208.512 23.968 208 22.928C207.504 21.872 207.256 20.648 207.256 19.256ZM216.952 19.256C216.952 18.392 216.712 17.712 216.232 17.216C215.768 16.72 215.192 16.472 214.504 16.472C213.8 16.472 213.216 16.72 212.752 17.216C212.288 17.696 212.056 18.376 212.056 19.256C212.056 20.12 212.288 20.808 212.752 21.32C213.216 21.816 213.8 22.064 214.504 22.064C215.192 22.064 215.768 21.816 216.232 21.32C216.712 20.824 216.952 20.136 216.952 19.256ZM229.04 14.912C229.568 14.144 230.208 13.536 230.96 13.088C231.712 12.64 232.52 12.416 233.384 12.416V17.432H232.064C231.04 17.432 230.28 17.632 229.784 18.032C229.288 18.432 229.04 19.128 229.04 20.12V26H224.336V12.536H229.04V14.912ZM234.303 19.256C234.303 17.864 234.551 16.648 235.047 15.608C235.559 14.568 236.255 13.768 237.135 13.208C238.015 12.648 238.991 12.368 240.063 12.368C240.927 12.368 241.695 12.552 242.367 12.92C243.055 13.272 243.591 13.76 243.975 14.384V8.24H248.703V26H243.975V24.128C243.607 24.752 243.087 25.248 242.415 25.616C241.743 25.984 240.951 26.168 240.039 26.168C238.967 26.168 237.991 25.888 237.111 25.328C236.247 24.768 235.559 23.968 235.047 22.928C234.551 21.872 234.303 20.648 234.303 19.256ZM243.999 19.256C243.999 18.392 243.759 17.712 243.279 17.216C242.815 16.72 242.239 16.472 241.551 16.472C240.847 16.472 240.263 16.72 239.799 17.216C239.335 17.696 239.103 18.376 239.103 19.256C239.103 20.12 239.335 20.808 239.799 21.32C240.263 21.816 240.847 22.064 241.551 22.064C242.239 22.064 242.815 21.816 243.279 21.32C243.759 20.824 243.999 20.136 243.999 19.256Z" fill="#7EE4E0"/>
<path d="M72 6C65.125 6 59.5 11.625 59.5 18.5C59.5 25.375 65.125 31 72 31C78.875 31 84.5 25.375 84.5 18.5C84.5 11.625 78.875 6 72 6ZM72 29.4375C65.9062 29.4375 61.0625 24.5938 61.0625 18.5C61.0625 14.75 62.9375 11.3125 66.0625 9.28125C65.9062 10.2188 65.75 11.3125 65.75 12.25C65.75 19.9062 72 26.1562 79.6562 26.3125C77.625 28.3438 74.9688 29.4375 72 29.4375Z" fill="#7165E3"/>
</svg>
